<?xml version="1.0" encoding="UTF-8" standalone="no"?>
<!-- Created with Inkscape (http://www.inkscape.org/) -->

<svg
   xmlns:dc="http://purl.org/dc/elements/1.1/"
   xmlns:cc="http://creativecommons.org/ns#"
   xmlns:rdf="http://www.w3.org/1999/02/22-rdf-syntax-ns#"
   xmlns:svg="http://www.w3.org/2000/svg"
   xmlns="http://www.w3.org/2000/svg"
   xmlns:sodipodi="http://sodipodi.sourceforge.net/DTD/sodipodi-0.dtd"
   xmlns:inkscape="http://www.inkscape.org/namespaces/inkscape"
   width="200"
   height="370"
   id="svg3056"
   version="1.1"
   inkscape:version="0.48.5 r10040"
   sodipodi:docname="New document 1">
  <defs
     id="defs3058" />
  <sodipodi:namedview
     id="base"
     pagecolor="#ffffff"
     bordercolor="#666666"
     borderopacity="1.0"
     inkscape:pageopacity="0.0"
     inkscape:pageshadow="2"
     inkscape:zoom="1.4"
     inkscape:cx="96.399189"
     inkscape:cy="200.56969"
     inkscape:document-units="px"
     inkscape:current-layer="layer1"
     showgrid="true"
     showborder="true"
     width="100px"
     inkscape:window-width="1920"
     inkscape:window-height="1054"
     inkscape:window-x="0"
     inkscape:window-y="26"
     inkscape:window-maximized="1">
    <inkscape:grid
       type="xygrid"
       id="grid3127"
       empspacing="5"
       visible="true"
       enabled="true"
       snapvisiblegridlinesonly="true" />
  </sodipodi:namedview>
  <metadata
     id="metadata3061">
    <rdf:RDF>
      <cc:Work
         rdf:about="">
        <dc:format>image/svg+xml</dc:format>
        <dc:type
           rdf:resource="http://purl.org/dc/dcmitype/StillImage" />
        <dc:title></dc:title>
      </cc:Work>
    </rdf:RDF>
  </metadata>
  <g
     inkscape:label="Layer 1"
     inkscape:groupmode="layer"
     id="layer1"
     transform="translate(0,-682.36212)">
    <path
       style="fill:#747474;stroke:none"
       inkscape:connector-curvature="0"
       id="path12"
       d="m 150,717.36212 c 10,0 20,4.99339 20,20 l 0,95 c 0,10 -5,20 -20,20 l -95,0 c -10.00136,0 -20,-5 -20,-20 l 0,-95 c 0,-15 5,-20 20,-20"
       sodipodi:nodetypes="cssssssc" />
    <path
       style="fill:#d2d0d0;stroke:none"
       inkscape:connector-curvature="0"
       id="path98"
       d="m 155,722.36212 c 5,0 10,5 10,10 l 0,105 c 0,5 -5,10 -10,10 l -105,0 c -5,0 -10,-5 -10,-10 l 0,-105 c 0,-5 5,-10 10,-10"
       sodipodi:nodetypes="cssssssc" />
    <path
       style="fill:#b1b1b1;stroke:none"
       inkscape:connector-curvature="0"
       id="path100"
       d="m 114.3,812.04994 q 0,5.5 -3.9,9.35 -3.85,3.9 -9.35,3.9 -5.5,0 -9.4,-3.9 -3.85,-3.85 -3.85,-9.35 0,-5.5 3.85,-9.4 3.9,-3.85 9.4,-3.85 5.5,0 9.35,3.85 3.9,3.9 3.9,9.4" />
    <path
       style="fill:#ffffff;stroke:none"
       inkscape:connector-curvature="0"
       id="path102"
       d="m 87.45,783.14994 30.05,0 q 7.35,0.15 12.6,5.4 5.4,5.4 5.4,13 0,7.65 -5.4,13.1 -5.45,5.35 -13.05,5.35 -7.65,0 -13.05,-5.35 l -2,-2.4 -2,2.4 q -5.45,5.35 -13.1,5.35 -7.6,0 -13,-5.35 -5.4,-5.45 -5.4,-13.1 0,-7.6 5.4,-13 5.4,-5.4 13,-5.4 l 0.55,0" />
    <path
       style="fill:#ee9fee;stroke:none"
       inkscape:connector-curvature="0"
       id="path104"
       d="m 113.05,773.84994 q 3.95,1.95 4.3,4.65 l 0.05,1.05 q 0,6.15 -4.35,10.45 -4.35,4.35 -10.45,4.35 -6.15,0 -10.5,-4.35 -4.3,-4.3 -4.3,-10.45 l 0,-1.05 q 0.35,-2.7 4.3,-4.65 4.35,-2.1 10.5,-2.1 6.1,0 10.45,2.1" />
    <path
       style="fill:#543209;stroke:none"
       inkscape:connector-curvature="0"
       id="path106"
       d="m 80.65,771.59994 0,0.2 0,0.55 q -0.3,2.95 -3.05,5.05 -3,2.35 -7.25,2.35 -4.25,0 -7.25,-2.35 -2.7,-2.1 -3,-5.05 l 0,-0.55 0,-0.2 0,-0.15 q 0,-5.75 3,-9.85 3,-4.15 7.25,-4.15 4.25,0 7.25,4.15 3,4.1 3.05,9.85 l 0,0.15" />
    <path
       style="fill:#543209;stroke:none"
       inkscape:connector-curvature="0"
       id="path108"
       d="m 145.4,771.59994 0,0.2 0,0.55 q -0.35,2.95 -3.05,5.05 -3,2.35 -7.25,2.35 -4.25,0 -7.25,-2.35 -2.75,-2.1 -3,-5.05 l -0.05,-0.55 0,-0.2 0,-0.15 q 0.05,-5.75 3.05,-9.85 3,-4.15 7.25,-4.15 4.25,0 7.25,4.15 3,4.1 3.05,9.85 l 0,0.15" />
    <path
       style="fill:#b1b1b1;stroke:none"
       inkscape:connector-curvature="0"
       id="path110"
       d="m 124.6,801.79994 q 13.3,-0.1 19.75,6.55 l 0.25,0.55 -0.25,0.55 -3.3,3.25 -0.55,0.25 -0.5,-0.25 q -5.1,-4.8 -15.4,-4.7 l -0.55,-0.2 -0.2,-0.6 -0.05,-4.6 q -0.05,-0.35 0.2,-0.55 0.25,-0.25 0.6,-0.25 m 23.25,-9.35 -0.6,4.6 -0.3,0.55 -0.55,0.15 q -10.75,-1.45 -20.8,2.15 l -0.55,-0.05 -0.45,-0.45 -1.55,-4.35 q -0.1,-0.35 0.05,-0.6 l 0.45,-0.4 q 11.4,-4.1 23.65,-2.45 l 0.5,0.3 0.15,0.55 m -68.8,9.35 0.6,0.25 0.2,0.55 -0.05,4.6 -0.25,0.6 -0.55,0.2 q -10.25,-0.1 -15.35,4.7 l -0.55,0.25 -0.5,-0.25 -3.3,-3.25 -0.25,-0.55 q 0,-0.35 0.25,-0.55 6.4,-6.65 19.75,-6.55 m -23.3,-9.35 q 0,-0.3 0.15,-0.55 l 0.55,-0.3 q 12.25,-1.65 23.6,2.45 l 0.5,0.4 0,0.6 -1.55,4.35 -0.4,0.45 -0.6,0.05 q -10,-3.6 -20.75,-2.15 l -0.55,-0.15 -0.3,-0.55 -0.65,-4.6" />
    <path
       style="fill:#747474;stroke:none"
       inkscape:connector-curvature="0"
       id="path12-9"
       d="m 149.9,872.3743 c 10,0 20,4.99339 20,20 l 0,95 c 0,9.99999 -5,20 -20,20 l -95,0 c -10.00136,0 -20,-5 -20,-20 l 0,-95 c 0,-15 5,-20 20,-20"
       sodipodi:nodetypes="cssssssc" />
    <path
       style="fill:#d2d0d0;stroke:none"
       inkscape:connector-curvature="0"
       id="path98-2"
       d="m 154.9,877.3743 c 5,0 10,5 10,10 l 0,105 c 0,4.99999 -5,10 -10,10 l -105,0 c -5,0 -10,-5.00001 -10,-10 l 0,-105 c 0,-5 5,-10 10,-10"
       sodipodi:nodetypes="cssssssc" />
    <path
       style="fill:#b1b1b1;stroke:none"
       inkscape:connector-curvature="0"
       id="path100-0"
       d="m 114.2,967.06212 q 0,5.5 -3.9,9.35 -3.85,3.9 -9.35,3.9 -5.5,0 -9.4,-3.9 -3.85,-3.85 -3.85,-9.35 0,-5.5 3.85,-9.4 3.9,-3.85 9.4,-3.85 5.5,0 9.35,3.85 3.9,3.9 3.9,9.4" />
    <path
       style="fill:#ffffff;stroke:none"
       inkscape:connector-curvature="0"
       id="path102-2"
       d="m 87.35,938.16212 30.05,0 q 7.35,0.15 12.6,5.4 5.4,5.4 5.4,13 0,7.65 -5.4,13.1 -5.45,5.35 -13.05,5.35 -7.65,0 -13.05,-5.35 l -2,-2.4 -2,2.4 q -5.45,5.35 -13.1,5.35 -7.6,0 -13,-5.35 -5.4,-5.45 -5.4,-13.1 0,-7.6 5.4,-13 5.4,-5.4 13,-5.4 l 0.55,0" />
    <path
       style="fill:#ee9fee;stroke:none"
       inkscape:connector-curvature="0"
       id="path104-3"
       d="m 112.95,928.86212 q 3.95,1.95 4.3,4.65 l 0.05,1.05 q 0,6.15 -4.35,10.45 -4.35,4.35 -10.45,4.35 -6.15,0 -10.5,-4.35 -4.3,-4.3 -4.3,-10.45 l 0,-1.05 q 0.35,-2.7 4.3,-4.65 4.35,-2.1 10.5,-2.1 6.1,0 10.45,2.1" />
    <path
       style="fill:#543209;stroke:none"
       inkscape:connector-curvature="0"
       id="path106-7"
       d="m 80.55,926.61212 0,0.2 0,0.55 c -0.55,0 -1.22305,0.15101 -3.44414,0 -2.10586,0 -4.27253,0 -7.10586,0 -2.90755,0.1551 -9.96082,0.23059 -10,0 0,-1.69555 0,-5 5,-5 2.58174,10e-6 0.0495,-0.16752 5,0 0,0 10,0 10.55,4.1 l -0.55,-4.1"
       sodipodi:nodetypes="cccccccccc" />
    <path
       style="fill:#b1b1b1;stroke:none"
       inkscape:connector-curvature="0"
       id="path110-9"
       d="m 124.5,956.81212 q 13.3,-0.1 19.75,6.55 l 0.25,0.55 -0.25,0.55 -3.3,3.25 -0.55,0.25 -0.5,-0.25 q -5.1,-4.8 -15.4,-4.7 l -0.55,-0.2 -0.2,-0.6 -0.05,-4.6 q -0.05,-0.35 0.2,-0.55 0.25,-0.25 0.6,-0.25 m 23.25,-9.35 -0.6,4.6 -0.3,0.55 -0.55,0.15 q -10.75,-1.45 -20.8,2.15 l -0.55,-0.05 -0.45,-0.45 -1.55,-4.35 q -0.1,-0.35 0.05,-0.6 l 0.45,-0.4 q 11.4,-4.1 23.65,-2.45 l 0.5,0.3 0.15,0.55 m -68.8,9.35 0.6,0.25 0.2,0.55 -0.05,4.6 -0.25,0.6 -0.55,0.2 q -10.25,-0.1 -15.35,4.7 l -0.55,0.25 -0.5,-0.25 -3.3,-3.25 -0.25,-0.55 q 0,-0.35 0.25,-0.55 6.4,-6.65 19.75,-6.55 m -23.3,-9.35 q 0,-0.3 0.15,-0.55 l 0.55,-0.3 q 12.25,-1.65 23.6,2.45 l 0.5,0.4 0,0.6 -1.55,4.35 -0.4,0.45 -0.6,0.05 q -10,-3.6 -20.75,-2.15 l -0.55,-0.15 -0.3,-0.55 -0.65,-4.6" />
    <path
       style="fill:#543209;stroke:none"
       inkscape:connector-curvature="0"
       id="path106-7-2"
       d="m 124.45,926.61212 0,0.2 0,0.55 c 0.55,0 1.22305,0.15101 3.44414,0 2.10586,0 4.27253,0 7.10586,0 2.90755,0.1551 9.96082,0.23059 10,0 0,-1.69555 0,-5 -5,-5 -2.58174,10e-6 -0.0495,-0.16752 -5,0 0,0 -10,0 -10.55,4.1 l 0.55,-4.1"
       sodipodi:nodetypes="cccccccccc" />
  </g>
</svg>
